<svg xmlns="http://www.w3.org/2000/svg" width="280" height="280" style="width:100%;height:100%;transform:translate3d(0,0,0);content-visibility:visible"><defs><clipPath id="a"><path d="M0 0h280v280H0z"/></clipPath><clipPath id="b"><path d="M0 0h280v280H0z"/></clipPath><clipPath id="c"><path d="M0 0h280v280H0z"/></clipPath><clipPath id="q"><path d="M0 0h280v280H0z"/></clipPath><clipPath id="p"><path d="M0 0h280v280H0z"/></clipPath><clipPath id="d"><path d="M0 0h280v280H0z"/></clipPath><clipPath id="o"><path fill="#fff" d="M31 4V0H0v31h4V4h27"/></clipPath><clipPath id="n"><path fill="#fff" d="m27 4 4-4v31h-4V4"/><path fill="#fff" d="m31 0-4 4H0V0h31"/></clipPath><clipPath id="m"><path fill="#fff" d="M31 0h-4v27H0v4h31V0"/></clipPath><clipPath id="l"><path fill="#fff" d="M4 0H0v31h31v-4H4V0"/></clipPath><clipPath id="k"><path fill="#fff" d="M1.5 0A1.5 1.5 0 0 1 3 1.5v107a1.5 1.5 0 0 1-3 0V1.5A1.5 1.5 0 0 1 1.5 0"/></clipPath><clipPath id="j"><path fill="#fff" d="M1.5 0A1.5 1.5 0 0 1 3 1.5v177a1.5 1.5 0 0 1-3 0V1.5A1.5 1.5 0 0 1 1.5 0"/></clipPath><clipPath id="i"><path fill="#fff" d="M1.5 0A1.5 1.5 0 0 1 3 1.5v251.976a1.5 1.5 0 0 1-3 0V1.5A1.5 1.5 0 0 1 1.5 0"/></clipPath><clipPath id="h"><path fill="#fff" d="M1.5 0A1.5 1.5 0 0 1 3 1.5v177a1.5 1.5 0 0 1-3 0V1.5A1.5 1.5 0 0 1 1.5 0"/></clipPath><clipPath id="g"><path fill="#fff" d="M1.5 0A1.5 1.5 0 0 1 3 1.5v107a1.5 1.5 0 0 1-3 0V1.5A1.5 1.5 0 0 1 1.5 0"/></clipPath><clipPath id="f"><path fill="#fff" d="M1.5 0A1.5 1.5 0 0 1 3 1.5v35a1.5 1.5 0 0 1-3 0v-35A1.5 1.5 0 0 1 1.5 0"/></clipPath><clipPath id="e"><path fill="#fff" d="M1.5 0A1.5 1.5 0 0 1 3 1.5v35a1.5 1.5 0 0 1-3 0v-35A1.5 1.5 0 0 1 1.5 0"/></clipPath></defs><g clip-path="url(#a)"><g clip-path="url(#b)" style="display:block"><g clip-path="url(#c)" style="display:block"><g clip-path="url(#d)" style="display:block"><path fill="#E13022" fill-opacity=".3" d="M1.5 0A1.5 1.5 0 0 1 3 1.5v35a1.5 1.5 0 0 1-3 0v-35A1.5 1.5 0 0 1 1.5 0z" transform="rotate(45 -19.207 114.17)" style="display:block"/><g clip-path="url(#e)" transform="rotate(45 -19.207 114.17)" style="display:block"><path fill="none" d="M6-19.5h-8v78h8v-78z"/></g><path fill="#E13022" fill-opacity=".3" d="M1.5 0A1.5 1.5 0 0 1 3 1.5v35a1.5 1.5 0 0 1-3 0v-35A1.5 1.5 0 0 1 1.5 0z" transform="rotate(45 -129.4 377.27)" style="display:block"/><g clip-path="url(#f)" transform="rotate(45 -129.4 377.27)" style="display:block"><path fill="none" d="M6-19.5h-8v78h8v-78z"/></g><path fill="#E13022" fill-opacity=".3" d="M1.5 0A1.5 1.5 0 0 1 3 1.5v107a1.5 1.5 0 0 1-3 0V1.5A1.5 1.5 0 0 1 1.5 0z" transform="rotate(45 5.513 175.417)" style="display:block"/><g clip-path="url(#g)" transform="rotate(45 5.513 175.417)" style="display:block"><path fill="none" d="M6-55.5h-8v222h8v-222z"/></g><path fill="#E13022" fill-opacity=".3" d="M1.5 0A1.5 1.5 0 0 1 3 1.5v177a1.5 1.5 0 0 1-3 0V1.5A1.5 1.5 0 0 1 1.5 0z" transform="rotate(45 31.863 236.98)" style="display:block"/><g clip-path="url(#h)" transform="rotate(45 31.863 236.98)" style="display:block"><path fill="none" d="M6-90.5h-8v362h8v-362z"/></g><path fill="#E13022" fill-opacity=".3" d="M1.5 0A1.5 1.5 0 0 1 3 1.5v251.976a1.5 1.5 0 0 1-3 0V1.5A1.5 1.5 0 0 1 1.5 0z" transform="rotate(45 57.969 299.793)" style="display:block"/><g clip-path="url(#i)" transform="rotate(45 57.969 299.793)" style="display:block"><path fill="none" d="M6-127.988h-8v511.952h8v-511.952z"/></g><path fill="#E13022" fill-opacity=".3" d="M1.5 0A1.5 1.5 0 0 1 3 1.5v177a1.5 1.5 0 0 1-3 0V1.5A1.5 1.5 0 0 1 1.5 0z" transform="rotate(45 -5.239 325.612)" style="display:block"/><g clip-path="url(#j)" transform="rotate(45 -5.239 325.612)" style="display:block"><path fill="none" d="M6-90.5h-8v362h8v-362z"/></g><path fill="#E13022" fill-opacity=".3" d="M1.5 0A1.5 1.5 0 0 1 3 1.5v107a1.5 1.5 0 0 1-3 0V1.5A1.5 1.5 0 0 1 1.5 0z" transform="rotate(45 -66.175 352.371)" style="display:block"/><g clip-path="url(#k)" transform="rotate(45 -66.175 352.371)" style="display:block"><path fill="none" d="M6-55.5h-8v222h8v-222z"/></g><path fill="#E13022" fill-opacity=".3" d="M4 0H0v31h31v-4H4V0z" transform="translate(21 226)" style="display:block"/><g clip-path="url(#l)" transform="translate(21 226)" style="display:block"><path fill="none" d="M48-16h-64v64h64v-64z"/></g><path fill="#E13022" fill-opacity=".3" d="M31 0h-4v27H0v4h31V0z" transform="translate(226 225)" style="display:block"/><g clip-path="url(#m)" transform="translate(226 225)" style="display:block"><path fill="none" d="M48-16h-64v64h64v-64z"/></g><path fill="#E13022" fill-opacity=".3" d="m31 0-4 4H0V0h31zm-4 4 4-4v31h-4V4z" transform="translate(226 21)" style="display:block"/><g clip-path="url(#n)" transform="translate(226 21)" style="display:block"><path fill="none" d="M48-16h-64v64h64v-64z"/></g><path fill="#E13022" fill-opacity=".3" d="M31 4V0H0v31h4V4h27z" transform="translate(21 21)" style="display:block"/><g clip-path="url(#o)" transform="translate(21 21)" style="display:block"><path fill="none" d="M48-16h-64v64h64v-64z"/></g><path fill="#E13022" fill-opacity=".3" d="M4 2a2 2 0 1 1-4 0 2 2 0 0 1 4 0z" transform="translate(21 87)" style="display:block"/><path fill="#E13022" fill-opacity=".3" d="M4 2a2 2 0 1 1-4 0 2 2 0 0 1 4 0z" transform="translate(21 120)" style="display:block"/><path fill="#E13022" fill-opacity=".3" d="M4 2a2 2 0 1 1-4 0 2 2 0 0 1 4 0z" transform="translate(21 154)" style="display:block"/><path fill="#E13022" fill-opacity=".3" d="M4 2a2 2 0 1 1-4 0 2 2 0 0 1 4 0z" transform="translate(21 187)" style="display:block"/><path fill="#E13022" fill-opacity=".3" d="M4 2a2 2 0 1 1-4 0 2 2 0 0 1 4 0z" transform="translate(253 87)" style="display:block"/><path fill="#E13022" fill-opacity=".3" d="M4 2a2 2 0 1 1-4 0 2 2 0 0 1 4 0z" transform="translate(253 120)" style="display:block"/><path fill="#E13022" fill-opacity=".3" d="M4 2a2 2 0 1 1-4 0 2 2 0 0 1 4 0z" transform="translate(253 154)" style="display:block"/><path fill="#E13022" fill-opacity=".3" d="M4 2a2 2 0 1 1-4 0 2 2 0 0 1 4 0z" transform="translate(253 187)" style="display:block"/><path fill="#E13022" fill-opacity=".3" d="M4 2a2 2 0 1 1-4 0 2 2 0 0 1 4 0z" transform="translate(88 21)" style="display:block"/><path fill="#E13022" fill-opacity=".3" d="M4 2a2 2 0 1 1-4 0 2 2 0 0 1 4 0z" transform="translate(121 21)" style="display:block"/><path fill="#E13022" fill-opacity=".3" d="M4 2a2 2 0 1 1-4 0 2 2 0 0 1 4 0z" transform="translate(154 21)" style="display:block"/><path fill="#E13022" fill-opacity=".3" d="M4 2a2 2 0 1 1-4 0 2 2 0 0 1 4 0z" transform="translate(187 21)" style="display:block"/><path fill="#E13022" fill-opacity=".3" d="M4 2a2 2 0 1 1-4 0 2 2 0 0 1 4 0z" transform="translate(88 253)" style="display:block"/><path fill="#E13022" fill-opacity=".3" d="M4 2a2 2 0 1 1-4 0 2 2 0 0 1 4 0z" transform="translate(121 253)" style="display:block"/><path fill="#E13022" fill-opacity=".3" d="M4 2a2 2 0 1 1-4 0 2 2 0 0 1 4 0z" transform="translate(154 253)" style="display:block"/><path fill="#E13022" fill-opacity=".3" d="M4 2a2 2 0 1 1-4 0 2 2 0 0 1 4 0z" transform="translate(187 253)" style="display:block"/></g><g clip-path="url(#p)" style="display:block"><path fill="#E13022" d="M4 2a2 2 0 1 1-4 0 2 2 0 0 1 4 0z" transform="matrix(.883 0 0 .883 21.234 87.234)" style="display:block"/><path fill="#E13022" d="M4 2a2 2 0 1 1-4 0 2 2 0 0 1 4 0z" transform="matrix(.4126 0 0 .4126 22.175 121.175)" style="display:block"/><path fill="#E13022" d="M4 2a2 2 0 1 1-4 0 2 2 0 0 1 4 0z" transform="matrix(-.001 0 0 -.001 23.002 156.002)" style="display:block"/><path fill="#E13022" d="M4 2a2 2 0 1 1-4 0 2 2 0 0 1 4 0z" transform="matrix(-.001 0 0 -.001 23.002 189.002)" style="display:block"/><path fill="#E13022" d="M4 2a2 2 0 1 1-4 0 2 2 0 0 1 4 0z" transform="matrix(-.001 0 0 -.001 255.002 89.002)" style="display:block"/><path fill="#E13022" d="M4 2a2 2 0 1 1-4 0 2 2 0 0 1 4 0z" transform="matrix(-.001 0 0 -.001 255.002 122.002)" style="display:block"/><path fill="#E13022" d="M4 2a2 2 0 1 1-4 0 2 2 0 0 1 4 0z" transform="matrix(.4126 0 0 .4126 254.175 155.175)" style="display:block"/><path fill="#E13022" d="M4 2a2 2 0 1 1-4 0 2 2 0 0 1 4 0z" transform="matrix(.883 0 0 .883 253.234 187.234)" style="display:block"/><path fill="#E13022" d="M4 2a2 2 0 1 1-4 0 2 2 0 0 1 4 0z" transform="matrix(.883 0 0 .883 88.234 21.234)" style="display:block"/><path fill="#E13022" d="M4 2a2 2 0 1 1-4 0 2 2 0 0 1 4 0z" transform="matrix(.4126 0 0 .4126 122.175 22.175)" style="display:block"/><path fill="#E13022" d="M4 2a2 2 0 1 1-4 0 2 2 0 0 1 4 0z" transform="matrix(-.001 0 0 -.001 156.002 23.002)" style="display:block"/><path fill="#E13022" d="M4 2a2 2 0 1 1-4 0 2 2 0 0 1 4 0z" transform="matrix(-.001 0 0 -.001 189.002 23.002)" style="display:block"/><path fill="#E13022" d="M4 2a2 2 0 1 1-4 0 2 2 0 0 1 4 0z" transform="matrix(-.001 0 0 -.001 90.002 255.002)" style="display:block"/><path fill="#E13022" d="M4 2a2 2 0 1 1-4 0 2 2 0 0 1 4 0z" transform="matrix(-.001 0 0 -.001 123.002 255.002)" style="display:block"/><path fill="#E13022" d="M4 2a2 2 0 1 1-4 0 2 2 0 0 1 4 0z" transform="matrix(.4126 0 0 .4126 155.175 254.175)" style="display:block"/><path fill="#E13022" d="M4 2a2 2 0 1 1-4 0 2 2 0 0 1 4 0z" transform="matrix(.883 0 0 .883 187.234 253.234)" style="display:block"/></g><g clip-path="url(#q)" style="display:block"><path fill="#FF0B0B" d="M130.508 74.682v18.78c-.927.827-2.078.775-3.198.775-28.848.015-57.698.022-86.546-.004-3.871-.003-4.589-.75-4.595-4.726a14279.02 14279.02 0 0 1 0-48.86c.006-4.067.716-4.775 4.79-4.78 21.938-.025 43.876-.008 65.813-.012 4.617 0 4.62-.003 4.62-4.64 0-3.049-.025-6.098.004-9.146.017-1.718-.69-2.526-2.433-2.452-.88.037-1.767-.006-2.651-.006-33.75 0-67.501.002-101.251-.002-5.007 0-5.064-.008-4.99-4.928C.143 9.803-.25 4.917.288.046 43.052.046 85.815.06 128.578 0c1.653-.002 1.985.322 1.978 1.972-.077 17.816-.048 35.633-.048 53.45-1.242 1.032-2.741.765-4.161.766-21.6.017-43.2.01-64.801.013-5.012 0-5.015.004-5.013 5.003 0 3.287-.044 6.574.017 9.86.046 2.437.359 2.722 2.828 2.82 1.525.06 3.051.019 4.577.019 20.797.001 41.595-.006 62.392.012 1.42 0 2.92-.267 4.161.767z" transform="matrix(1 0 0 1 78.47 76.374)" style="display:block"/><path fill="#FF0B0B" d="M130.556 92.204c-42.625 0-85.249-.013-127.872.041-1.977.003-2.691-.262-2.684-2.504.097-29.139.084-58.277.02-87.416C.014.459.478-.055 2.37.005c4.588.144 9.186.134 13.775.007 2.096-.058 2.739.577 2.732 2.7-.075 23.248-.032 46.496-.08 69.743-.004 1.55.204 2.165 2.018 2.163 36.34-.06 72.679-.045 109.018-.047.241 0 .482-.027.723-.041v17.674z" transform="translate(78.471 113.473)" style="display:block"/></g></g></g></g></svg>