<svg width="512" height="512" viewBox="0 0 512 512" fill="none" xmlns="http://www.w3.org/2000/svg">
<rect width="512" height="512" fill="black"/>
<path d="M292.522 382.811L293.084 452.755L336.343 429.258V412.318V406.308L292.522 382.811Z" fill="#02BC62"/>
<path d="M277.347 374.581L252.628 361.467L178.471 401.903L277.347 454.361L280.156 456L279.595 375.674L277.347 374.581Z" fill="#02BC62"/>
<path d="M157.695 205.195V127.601L63.3127 177.873L138.032 216.123L157.695 205.195Z" fill="#02BC62"/>
<path d="M348.701 206.301L418.926 244.006V141.276L348.701 179.526V199.198V206.301Z" fill="#02BC62"/>
<path d="M409.937 130.865L366.117 107.368L348.701 117.204V164.197V165.837L411.061 131.411L409.937 130.865Z" fill="#02BC62"/>
<path d="M342.517 343.978L259.932 299.716V346.71V351.628L262.179 352.72L273.415 358.731L279.595 362.01L285.775 365.289L290.831 368.021L291.955 368.567L302.067 374.031L336.337 392.61L342.517 395.889H343.078L348.696 392.61L456 336.327V284.416L342.517 343.978Z" fill="#02BC62"/>
<path d="M307.123 267.481L295.887 273.492L294.764 274.039L291.955 275.678V274.585L290.831 275.132L284.651 278.41L277.348 274.585L276.224 274.039L273.415 272.946H272.292L260.494 266.935H259.932V272.946V274.039V278.956V285.514L342.517 330.321L437.461 280.049L447.573 274.585L448.697 274.039L437.461 268.028L431.281 264.203L424.539 260.924L418.36 257.646L348.696 219.941V244.531L343.078 247.81L336.899 251.088L330.157 254.367L307.123 267.481Z" fill="#02BC62"/>
<path d="M193.644 186.08L249.824 216.134L250.386 217.227L250.947 217.774L259.374 222.145V229.249V246.735V247.827L259.937 247.281V253.292H260.498L267.24 256.57L277.352 261.488V251.106V244.002V237.445V148.376L170.61 91.5469V106.847V198.648L175.667 195.916L193.644 186.08Z" fill="#02BC62"/>
<path d="M289.708 230.859V237.417V244.52V262.552L291.394 262.006L330.158 240.695L336.338 237.417V219.931V212.827V206.27V186.598V170.751V116.654L330.72 113.376L223.416 56L177.348 81.1362L289.708 141.244V230.859Z" fill="#02BC62"/>
<path d="M124.539 223.212L56 187.693V188.24V239.058L76.2247 249.44L123.978 223.758L124.539 223.212Z" fill="#02BC62"/>
<path d="M208.807 241.235L214.988 237.41L221.729 234.132L239.145 224.296L193.639 199.706L175.662 209.542L174.538 210.088L169.481 213.367L167.796 213.914L163.302 216.646L161.617 217.192L149.818 223.749L145.886 225.935L143.077 227.028L139.706 229.214L136.897 230.853L133.527 232.492L89.1443 256.535L82.4023 260.361H81.8406V266.918V382.216L126.785 406.805L126.223 290.415V286.589L128.47 284.95L138.021 280.032L144.2 276.207L208.807 241.235Z" fill="#02BC62"/>
<path d="M239.703 354.353L243.636 352.713L245.883 351.074H246.445L247.568 350.528V346.702V344.517V292.605V286.048V278.944V274.027V272.934V266.923V260.366V259.819V253.808V253.262V246.705V235.776V233.59L235.209 240.694L228.467 243.973L222.287 247.798L143.635 290.42L138.579 293.698V297.523L139.141 408.996L140.826 407.903L157.68 399.16L163.86 395.335L170.602 392.057L232.4 358.724L239.703 354.353Z" fill="#02BC62"/>
</svg>
