<svg xmlns="http://www.w3.org/2000/svg" xmlns:xlink="http://www.w3.org/1999/xlink" width="500" zoomAndPan="magnify" viewBox="0 0 375 374.999991" height="500" preserveAspectRatio="xMidYMid meet" version="1.0"><defs><clipPath id="46b5d771bc"><path d="M 60.476562 60.476562 L 105.070312 60.476562 L 105.070312 314.523438 L 60.476562 314.523438 Z M 60.476562 60.476562 " clip-rule="nonzero"/></clipPath><clipPath id="65dcb5f7f2"><path d="M 270.101562 60.476562 L 314.523438 60.476562 L 314.523438 314.523438 L 270.101562 314.523438 Z M 270.101562 60.476562 " clip-rule="nonzero"/></clipPath><clipPath id="a21046da2c"><path d="M 60.476562 60.476562 L 155.746094 60.476562 L 155.746094 104.898438 L 60.476562 104.898438 Z M 60.476562 60.476562 " clip-rule="nonzero"/></clipPath><clipPath id="a0c754f6da"><path d="M 219.253906 60.476562 L 314.523438 60.476562 L 314.523438 104.898438 L 219.253906 104.898438 Z M 219.253906 60.476562 " clip-rule="nonzero"/></clipPath><clipPath id="3a266a2e23"><path d="M 60.476562 270.101562 L 155.746094 270.101562 L 155.746094 314.523438 L 60.476562 314.523438 Z M 60.476562 270.101562 " clip-rule="nonzero"/></clipPath><clipPath id="c326dde937"><path d="M 219.253906 270.101562 L 314.523438 270.101562 L 314.523438 314.523438 L 219.253906 314.523438 Z M 219.253906 270.101562 " clip-rule="nonzero"/></clipPath></defs><rect x="-37.5" width="450" fill="transparent" y="-37.499999" height="449.999989" fill-opacity="1"/><rect x="-37.5" width="450" fill="transparent" y="-37.499999" height="449.999989" fill-opacity="1"/><g clip-path="url(#46b5d771bc)"><path fill="#e13022" d="M 60.476562 60.476562 L 105.070312 60.476562 L 105.070312 314.445312 L 60.476562 314.445312 Z M 60.476562 60.476562 " fill-opacity="1" fill-rule="nonzero"/></g><g clip-path="url(#65dcb5f7f2)"><path fill="#e13022" d="M 270.101562 60.476562 L 314.523438 60.476562 L 314.523438 314.5 L 270.101562 314.5 Z M 270.101562 60.476562 " fill-opacity="1" fill-rule="nonzero"/></g><g clip-path="url(#a21046da2c)"><path fill="#e13022" d="M 60.476562 60.476562 L 155.738281 60.476562 L 155.738281 104.898438 L 60.476562 104.898438 Z M 60.476562 60.476562 " fill-opacity="1" fill-rule="nonzero"/></g><g clip-path="url(#a0c754f6da)"><path fill="#e13022" d="M 219.253906 60.476562 L 314.515625 60.476562 L 314.515625 104.898438 L 219.253906 104.898438 Z M 219.253906 60.476562 " fill-opacity="1" fill-rule="nonzero"/></g><g clip-path="url(#3a266a2e23)"><path fill="#e13022" d="M 60.476562 270.101562 L 155.738281 270.101562 L 155.738281 314.523438 L 60.476562 314.523438 Z M 60.476562 270.101562 " fill-opacity="1" fill-rule="nonzero"/></g><g clip-path="url(#c326dde937)"><path fill="#e13022" d="M 219.253906 270.101562 L 314.515625 270.101562 L 314.515625 314.523438 L 219.253906 314.523438 Z M 219.253906 270.101562 " fill-opacity="1" fill-rule="nonzero"/></g></svg>