<svg xmlns="http://www.w3.org/2000/svg" xmlns:xlink="http://www.w3.org/1999/xlink" viewBox="0 0 280 280" width="280" height="280" preserveAspectRatio="xMidYMid meet" style="width: 100%; height: 100%; transform: translate3d(0px, 0px, 0px); content-visibility: visible;"><defs><clipPath id="__lottie_element_4"><rect width="280" height="280" x="0" y="0"></rect></clipPath><clipPath id="__lottie_element_6"><path d="M0,0 L280,0 L280,280 L0,280z"></path></clipPath><clipPath id="__lottie_element_11"><path d="M0,0 L280,0 L280,280 L0,280z"></path></clipPath><clipPath id="__lottie_element_16"><path d="M0,0 L280,0 L280,280 L0,280z"></path></clipPath><clipPath id="__lottie_element_30"><path d="M0,0 L280,0 L280,280 L0,280z"></path></clipPath><clipPath id="__lottie_element_100"><path d="M0,0 L280,0 L280,280 L0,280z"></path></clipPath><clipPath id="__lottie_element_171"><path fill="#ffffff" clip-rule="nonzero" d=" M31,4 C31,4 31,0 31,0 C31,0 0,0 0,0 C0,0 0,31 0,31 C0,31 4,31 4,31 C4,31 4,4 4,4 C4,4 31,4 31,4 C31,4 31,4 31,4" fill-opacity="1"></path></clipPath><clipPath id="__lottie_element_178"><path fill="#ffffff" clip-rule="nonzero" d=" M27,4 C27,4 31,0 31,0 C31,0 31,31 31,31 C31,31 27,31 27,31 C27,31 27,4 27,4 C27,4 27,4 27,4" fill-opacity="1"></path><path fill="#ffffff" clip-rule="nonzero" d=" M31,0 C31,0 27,4 27,4 C27,4 0,4 0,4 C0,4 0,0 0,0 C0,0 31,0 31,0 C31,0 31,0 31,0" fill-opacity="1"></path></clipPath><clipPath id="__lottie_element_185"><path fill="#ffffff" clip-rule="nonzero" d=" M31,0 C31,0 27,0 27,0 C27,0 27,27 27,27 C27,27 0,27 0,27 C0,27 0,31 0,31 C0,31 31,31 31,31 C31,31 31,0 31,0 C31,0 31,0 31,0" fill-opacity="1"></path></clipPath><clipPath id="__lottie_element_192"><path fill="#ffffff" clip-rule="nonzero" d=" M4,0 C4,0 0,0 0,0 C0,0 0,31 0,31 C0,31 31,31 31,31 C31,31 31,27 31,27 C31,27 4,27 4,27 C4,27 4,0 4,0 C4,0 4,0 4,0" fill-opacity="1"></path></clipPath><clipPath id="__lottie_element_199"><path fill="#ffffff" clip-rule="nonzero" d=" M1.5,0 C1.5,0 1.5,0 1.5,0 C2.328429937362671,0 3,0.6715999841690063 3,1.5 C3,1.5 3,108.5 3,108.5 C3,109.32843017578125 2.328399896621704,110 1.5,110 C1.5,110 1.5,110 1.5,110 C0.6715700030326843,110 0,109.32839965820312 0,108.5 C0,108.5 0,1.5 0,1.5 C0,0.6715700030326843 0.6715999841690063,0 1.5,0 C1.5,0 1.5,0 1.5,0 C1.5,0 1.5,0 1.5,0" fill-opacity="1"></path></clipPath><clipPath id="__lottie_element_206"><path fill="#ffffff" clip-rule="nonzero" d=" M1.5,0 C1.5,0 1.5,0 1.5,0 C2.328429937362671,0 3,0.6715999841690063 3,1.5 C3,1.5 3,178.5 3,178.5 C3,179.32843017578125 2.328399896621704,180 1.5,180 C1.5,180 1.5,180 1.5,180 C0.6715700030326843,180 0,179.32839965820312 0,178.5 C0,178.5 0,1.5 0,1.5 C0,0.6715700030326843 0.6715999841690063,0 1.5,0 C1.5,0 1.5,0 1.5,0 C1.5,0 1.5,0 1.5,0" fill-opacity="1"></path></clipPath><clipPath id="__lottie_element_213"><path fill="#ffffff" clip-rule="nonzero" d=" M1.5,0 C1.5,0 1.5,0 1.5,0 C2.328429937362671,0 3,0.6715999841690063 3,1.5 C3,1.5 3,253.47569274902344 3,253.47569274902344 C3,254.3041229248047 2.328399896621704,254.97569274902344 1.5,254.97569274902344 C1.5,254.97569274902344 1.5,254.97569274902344 1.5,254.97569274902344 C0.6715700030326843,254.97569274902344 0,254.30409240722656 0,253.47569274902344 C0,253.47569274902344 0,1.5 0,1.5 C0,0.6715700030326843 0.6715999841690063,0 1.5,0 C1.5,0 1.5,0 1.5,0 C1.5,0 1.5,0 1.5,0" fill-opacity="1"></path></clipPath><clipPath id="__lottie_element_220"><path fill="#ffffff" clip-rule="nonzero" d=" M1.5,0 C1.5,0 1.5,0 1.5,0 C2.328429937362671,0 3,0.6715999841690063 3,1.5 C3,1.5 3,178.5 3,178.5 C3,179.32843017578125 2.328399896621704,180 1.5,180 C1.5,180 1.5,180 1.5,180 C0.6715700030326843,180 0,179.32839965820312 0,178.5 C0,178.5 0,1.5 0,1.5 C0,0.6715700030326843 0.6715999841690063,0 1.5,0 C1.5,0 1.5,0 1.5,0 C1.5,0 1.5,0 1.5,0" fill-opacity="1"></path></clipPath><clipPath id="__lottie_element_227"><path fill="#ffffff" clip-rule="nonzero" d=" M1.5,0 C1.5,0 1.5,0 1.5,0 C2.328429937362671,0 3,0.6715999841690063 3,1.5 C3,1.5 3,108.5 3,108.5 C3,109.32843017578125 2.328399896621704,110 1.5,110 C1.5,110 1.5,110 1.5,110 C0.6715700030326843,110 0,109.32839965820312 0,108.5 C0,108.5 0,1.5 0,1.5 C0,0.6715700030326843 0.6715999841690063,0 1.5,0 C1.5,0 1.5,0 1.5,0 C1.5,0 1.5,0 1.5,0" fill-opacity="1"></path></clipPath><clipPath id="__lottie_element_234"><path fill="#ffffff" clip-rule="nonzero" d=" M1.5,0 C1.5,0 1.5,0 1.5,0 C2.328429937362671,0 3,0.6715999841690063 3,1.5 C3,1.5 3,36.5 3,36.5 C3,37.32843017578125 2.328399896621704,38 1.5,38 C1.5,38 1.5,38 1.5,38 C0.6715700030326843,38 0,37.328399658203125 0,36.5 C0,36.5 0,1.5 0,1.5 C0,0.6715700030326843 0.6715999841690063,0 1.5,0 C1.5,0 1.5,0 1.5,0 C1.5,0 1.5,0 1.5,0" fill-opacity="1"></path></clipPath><clipPath id="__lottie_element_241"><path fill="#ffffff" clip-rule="nonzero" d=" M1.5,0 C1.5,0 1.5,0 1.5,0 C2.328429937362671,0 3,0.6715999841690063 3,1.5 C3,1.5 3,36.5 3,36.5 C3,37.32843017578125 2.328399896621704,38 1.5,38 C1.5,38 1.5,38 1.5,38 C0.6715700030326843,38 0,37.328399658203125 0,36.5 C0,36.5 0,1.5 0,1.5 C0,0.6715700030326843 0.6715999841690063,0 1.5,0 C1.5,0 1.5,0 1.5,0 C1.5,0 1.5,0 1.5,0" fill-opacity="1"></path></clipPath></defs><g clip-path="url(#__lottie_element_4)"><g clip-path="url(#__lottie_element_6)" transform="matrix(1,0,0,1,0,0)" opacity="1" style="display: block;"><g clip-path="url(#__lottie_element_11)" transform="matrix(1,0,0,1,0,0)" opacity="1" style="display: block;"><g clip-path="url(#__lottie_element_100)" transform="matrix(1,0,0,1,0,0)" opacity="1" style="display: block;"><g transform="matrix(0.7071067690849304,0.7071067690849304,-0.7071067690849304,0.7071067690849304,75.1050033569336,47.02149963378906)" opacity="1" style="display: block;"><g opacity="1" transform="matrix(1,0,0,1,0,0)"><path fill="rgb(225,48,34)" fill-opacity="0.3" d=" M1.5,0 C1.5,0 1.5,0 1.5,0 C2.328429937362671,0 3,0.6715999841690063 3,1.5 C3,1.5 3,36.5 3,36.5 C3,37.32843017578125 2.328399896621704,38 1.5,38 C1.5,38 1.5,38 1.5,38 C0.6715700030326843,38 0,37.328399658203125 0,36.5 C0,36.5 0,1.5 0,1.5 C0,0.6715700030326843 0.6715999841690063,0 1.5,0 C1.5,0 1.5,0 1.5,0 C1.5,0 1.5,0 1.5,0z"></path></g></g><g clip-path="url(#__lottie_element_241)" transform="matrix(0.7071067690849304,0.7071067690849304,-0.7071067690849304,0.7071067690849304,75.1050033569336,47.02149963378906)" opacity="1" style="display: block;"><g opacity="1" transform="matrix(1,0,0,1,0,0)"><path fill="rgb(0,255,0)" fill-opacity="0" d=" M6,-19.5 C6,-19.5 -2,-19.5 -2,-19.5 C-2,-19.5 -2,58.5 -2,58.5 C-2,58.5 6,58.5 6,58.5 C6,58.5 6,-19.5 6,-19.5z"></path></g><g opacity="1" transform="matrix(1,0,0,1,0,0)"><path stroke-linecap="butt" stroke-linejoin="miter" fill-opacity="0" stroke-miterlimit="4" stroke="rgb(225,48,34)" stroke-opacity="0.9939613551889765" stroke-width="3.975845420755906" d="M0 0"></path></g></g><g transform="matrix(0.7071067690849304,0.7071067690849304,-0.7071067690849304,0.7071067690849304,228.87010192871094,202)" opacity="1" style="display: block;"><g opacity="1" transform="matrix(1,0,0,1,0,0)"><path fill="rgb(225,48,34)" fill-opacity="0.3" d=" M1.5,0 C1.5,0 1.5,0 1.5,0 C2.328429937362671,0 3,0.6715999841690063 3,1.5 C3,1.5 3,36.5 3,36.5 C3,37.32843017578125 2.328399896621704,38 1.5,38 C1.5,38 1.5,38 1.5,38 C0.6715700030326843,38 0,37.328399658203125 0,36.5 C0,36.5 0,1.5 0,1.5 C0,0.6715700030326843 0.6715999841690063,0 1.5,0 C1.5,0 1.5,0 1.5,0 C1.5,0 1.5,0 1.5,0z"></path></g></g><g clip-path="url(#__lottie_element_234)" transform="matrix(0.7071067690849304,0.7071067690849304,-0.7071067690849304,0.7071067690849304,228.87010192871094,202)" opacity="1" style="display: block;"><g opacity="1" transform="matrix(1,0,0,1,0,0)"><path fill="rgb(0,255,0)" fill-opacity="0" d=" M6,-19.5 C6,-19.5 -2,-19.5 -2,-19.5 C-2,-19.5 -2,58.5 -2,58.5 C-2,58.5 6,58.5 6,58.5 C6,58.5 6,-19.5 6,-19.5z"></path></g><g opacity="1" transform="matrix(1,0,0,1,0,0)"><path stroke-linecap="butt" stroke-linejoin="miter" fill-opacity="0" stroke-miterlimit="4" stroke="rgb(225,48,34)" stroke-opacity="0.9939613551889765" stroke-width="3.975845420755906" d="M0 0"></path></g></g><g transform="matrix(0.7071067690849304,0.7071067690849304,-0.7071067690849304,0.7071067690849304,125.65309143066406,47.47999954223633)" opacity="1" style="display: block;"><g opacity="1" transform="matrix(1,0,0,1,0,0)"><path fill="rgb(225,48,34)" fill-opacity="0.3" d=" M1.5,0 C1.5,0 1.5,0 1.5,0 C2.328429937362671,0 3,0.6715999841690063 3,1.5 C3,1.5 3,108.5 3,108.5 C3,109.32843017578125 2.328399896621704,110 1.5,110 C1.5,110 1.5,110 1.5,110 C0.6715700030326843,110 0,109.32839965820312 0,108.5 C0,108.5 0,1.5 0,1.5 C0,0.6715700030326843 0.6715999841690063,0 1.5,0 C1.5,0 1.5,0 1.5,0 C1.5,0 1.5,0 1.5,0z"></path></g></g><g clip-path="url(#__lottie_element_227)" transform="matrix(0.7071067690849304,0.7071067690849304,-0.7071067690849304,0.7071067690849304,125.65309143066406,47.47999954223633)" opacity="1" style="display: block;"><g opacity="1" transform="matrix(1,0,0,1,0,0)"><path fill="rgb(0,255,0)" fill-opacity="0" d=" M6,-55.5 C6,-55.5 -2,-55.5 -2,-55.5 C-2,-55.5 -2,166.5 -2,166.5 C-2,166.5 6,166.5 6,166.5 C6,166.5 6,-55.5 6,-55.5z"></path></g><g opacity="1" transform="matrix(1,0,0,1,0,0)"><path stroke-linecap="butt" stroke-linejoin="miter" fill-opacity="0" stroke-miterlimit="4" stroke="rgb(225,48,34)" stroke-opacity="0.9939613551889765" stroke-width="3.975845420755906" d="M0 0"></path></g></g><g transform="matrix(0.7071067690849304,0.7071067690849304,-0.7071067690849304,0.7071067690849304,176.9022979736328,46.87950134277344)" opacity="1" style="display: block;"><g opacity="1" transform="matrix(1,0,0,1,0,0)"><path fill="rgb(225,48,34)" fill-opacity="0.3" d=" M1.5,0 C1.5,0 1.5,0 1.5,0 C2.328429937362671,0 3,0.6715999841690063 3,1.5 C3,1.5 3,178.5 3,178.5 C3,179.32843017578125 2.328399896621704,180 1.5,180 C1.5,180 1.5,180 1.5,180 C0.6715700030326843,180 0,179.32839965820312 0,178.5 C0,178.5 0,1.5 0,1.5 C0,0.6715700030326843 0.6715999841690063,0 1.5,0 C1.5,0 1.5,0 1.5,0 C1.5,0 1.5,0 1.5,0z"></path></g></g><g clip-path="url(#__lottie_element_220)" transform="matrix(0.7071067690849304,0.7071067690849304,-0.7071067690849304,0.7071067690849304,176.9022979736328,46.87950134277344)" opacity="1" style="display: block;"><g opacity="1" transform="matrix(1,0,0,1,0,0)"><path fill="rgb(0,255,0)" fill-opacity="0" d=" M6,-90.5 C6,-90.5 -2,-90.5 -2,-90.5 C-2,-90.5 -2,271.5 -2,271.5 C-2,271.5 6,271.5 6,271.5 C6,271.5 6,-90.5 6,-90.5z"></path></g><g opacity="1" transform="matrix(1,0,0,1,0,0)"><path stroke-linecap="butt" stroke-linejoin="miter" fill-opacity="0" stroke-miterlimit="4" stroke="rgb(225,48,34)" stroke-opacity="0.9939613551889765" stroke-width="3.975845420755906" d="M0 0"></path></g></g><g transform="matrix(0.7071067690849304,0.7071067690849304,-0.7071067690849304,0.7071067690849304,228.9644012451172,46.81739807128906)" opacity="1" style="display: block;"><g opacity="1" transform="matrix(1,0,0,1,0,0)"><path fill="rgb(225,48,34)" fill-opacity="0.3" d=" M1.5,0 C1.5,0 1.5,0 1.5,0 C2.328429937362671,0 3,0.6715999841690063 3,1.5 C3,1.5 3,253.47569274902344 3,253.47569274902344 C3,254.3041229248047 2.328399896621704,254.97569274902344 1.5,254.97569274902344 C1.5,254.97569274902344 1.5,254.97569274902344 1.5,254.97569274902344 C0.6715700030326843,254.97569274902344 0,254.30409240722656 0,253.47569274902344 C0,253.47569274902344 0,1.5 0,1.5 C0,0.6715700030326843 0.6715999841690063,0 1.5,0 C1.5,0 1.5,0 1.5,0 C1.5,0 1.5,0 1.5,0z"></path></g></g><g clip-path="url(#__lottie_element_213)" transform="matrix(0.7071067690849304,0.7071067690849304,-0.7071067690849304,0.7071067690849304,228.9644012451172,46.81739807128906)" opacity="1" style="display: block;"><g opacity="1" transform="matrix(1,0,0,1,0,0)"><path fill="rgb(0,255,0)" fill-opacity="0" d=" M6,-127.98784637451172 C6,-127.98784637451172 -2,-127.98784637451172 -2,-127.98784637451172 C-2,-127.98784637451172 -2,383.9635314941406 -2,383.9635314941406 C-2,383.9635314941406 6,383.9635314941406 6,383.9635314941406 C6,383.9635314941406 6,-127.98784637451172 6,-127.98784637451172z"></path></g><g opacity="1" transform="matrix(1,0,0,1,0,0)"><path stroke-linecap="butt" stroke-linejoin="miter" fill-opacity="0" stroke-miterlimit="4" stroke="rgb(225,48,34)" stroke-opacity="0.9939613551889765" stroke-width="3.975845420755906" d="M0 0"></path></g></g><g transform="matrix(0.7071067690849304,0.7071067690849304,-0.7071067690849304,0.7071067690849304,228.70779418945312,99.07400512695312)" opacity="1" style="display: block;"><g opacity="1" transform="matrix(1,0,0,1,0,0)"><path fill="rgb(225,48,34)" fill-opacity="0.3" d=" M1.5,0 C1.5,0 1.5,0 1.5,0 C2.328429937362671,0 3,0.6715999841690063 3,1.5 C3,1.5 3,178.5 3,178.5 C3,179.32843017578125 2.328399896621704,180 1.5,180 C1.5,180 1.5,180 1.5,180 C0.6715700030326843,180 0,179.32839965820312 0,178.5 C0,178.5 0,1.5 0,1.5 C0,0.6715700030326843 0.6715999841690063,0 1.5,0 C1.5,0 1.5,0 1.5,0 C1.5,0 1.5,0 1.5,0z"></path></g></g><g clip-path="url(#__lottie_element_206)" transform="matrix(0.7071067690849304,0.7071067690849304,-0.7071067690849304,0.7071067690849304,228.70779418945312,99.07400512695312)" opacity="1" style="display: block;"><g opacity="1" transform="matrix(1,0,0,1,0,0)"><path fill="rgb(0,255,0)" fill-opacity="0" d=" M6,-90.5 C6,-90.5 -2,-90.5 -2,-90.5 C-2,-90.5 -2,271.5 -2,271.5 C-2,271.5 6,271.5 6,271.5 C6,271.5 6,-90.5 6,-90.5z"></path></g><g opacity="1" transform="matrix(1,0,0,1,0,0)"><path stroke-linecap="butt" stroke-linejoin="miter" fill-opacity="0" stroke-miterlimit="4" stroke="rgb(225,48,34)" stroke-opacity="0.9939613551889765" stroke-width="3.975845420755906" d="M0 0"></path></g></g><g transform="matrix(0.7071067690849304,0.7071067690849304,-0.7071067690849304,0.7071067690849304,229.78170776367188,150)" opacity="1" style="display: block;"><g opacity="1" transform="matrix(1,0,0,1,0,0)"><path fill="rgb(225,48,34)" fill-opacity="0.3" d=" M1.5,0 C1.5,0 1.5,0 1.5,0 C2.328429937362671,0 3,0.6715999841690063 3,1.5 C3,1.5 3,108.5 3,108.5 C3,109.32843017578125 2.328399896621704,110 1.5,110 C1.5,110 1.5,110 1.5,110 C0.6715700030326843,110 0,109.32839965820312 0,108.5 C0,108.5 0,1.5 0,1.5 C0,0.6715700030326843 0.6715999841690063,0 1.5,0 C1.5,0 1.5,0 1.5,0 C1.5,0 1.5,0 1.5,0z"></path></g></g><g clip-path="url(#__lottie_element_199)" transform="matrix(0.7071067690849304,0.7071067690849304,-0.7071067690849304,0.7071067690849304,229.78170776367188,150)" opacity="1" style="display: block;"><g opacity="1" transform="matrix(1,0,0,1,0,0)"><path fill="rgb(0,255,0)" fill-opacity="0" d=" M6,-55.5 C6,-55.5 -2,-55.5 -2,-55.5 C-2,-55.5 -2,166.5 -2,166.5 C-2,166.5 6,166.5 6,166.5 C6,166.5 6,-55.5 6,-55.5z"></path></g><g opacity="1" transform="matrix(1,0,0,1,0,0)"><path stroke-linecap="butt" stroke-linejoin="miter" fill-opacity="0" stroke-miterlimit="4" stroke="rgb(225,48,34)" stroke-opacity="0.9939613551889765" stroke-width="3.975845420755906" d="M0 0"></path></g></g><g transform="matrix(1,0,0,1,21,226)" opacity="1" style="display: block;"><g opacity="1" transform="matrix(1,0,0,1,0,0)"><path fill="rgb(225,48,34)" fill-opacity="0.3" d=" M4,0 C4,0 0,0 0,0 C0,0 0,31 0,31 C0,31 31,31 31,31 C31,31 31,27 31,27 C31,27 4,27 4,27 C4,27 4,0 4,0 C4,0 4,0 4,0z"></path></g></g><g clip-path="url(#__lottie_element_192)" transform="matrix(1,0,0,1,21,226)" opacity="1" style="display: block;"><g opacity="1" transform="matrix(1,0,0,1,0,0)"><path fill="rgb(0,255,0)" fill-opacity="0" d=" M48,-16 C48,-16 -16,-16 -16,-16 C-16,-16 -16,48 -16,48 C-16,48 48,48 48,48 C48,48 48,-16 48,-16z"></path></g><g opacity="1" transform="matrix(1,0,0,1,0,0)"><path stroke-linecap="butt" stroke-linejoin="miter" fill-opacity="0" stroke-miterlimit="4" stroke="rgb(225,48,34)" stroke-opacity="0.006038644811023488" stroke-width="3.975845420755906" d="M0 0"></path></g></g><g transform="matrix(1,0,0,1,226,225)" opacity="1" style="display: block;"><g opacity="1" transform="matrix(1,0,0,1,0,0)"><path fill="rgb(225,48,34)" fill-opacity="0.3" d=" M31,0 C31,0 27,0 27,0 C27,0 27,27 27,27 C27,27 0,27 0,27 C0,27 0,31 0,31 C0,31 31,31 31,31 C31,31 31,0 31,0 C31,0 31,0 31,0z"></path></g></g><g clip-path="url(#__lottie_element_185)" transform="matrix(1,0,0,1,226,225)" opacity="1" style="display: block;"><g opacity="1" transform="matrix(1,0,0,1,0,0)"><path fill="rgb(0,255,0)" fill-opacity="0" d=" M48,-16 C48,-16 -16,-16 -16,-16 C-16,-16 -16,48 -16,48 C-16,48 48,48 48,48 C48,48 48,-16 48,-16z"></path></g><g opacity="1" transform="matrix(1,0,0,1,0,0)"><path stroke-linecap="butt" stroke-linejoin="miter" fill-opacity="0" stroke-miterlimit="4" stroke="rgb(225,48,34)" stroke-opacity="0.006038644811023488" stroke-width="3.975845420755906" d="M0 0"></path></g></g><g transform="matrix(1,0,0,1,226,21)" opacity="1" style="display: block;"><g opacity="1" transform="matrix(1,0,0,1,0,0)"><path fill="rgb(225,48,34)" fill-opacity="0.3" d=" M31,0 C31,0 27,4 27,4 C27,4 0,4 0,4 C0,4 0,0 0,0 C0,0 31,0 31,0 C31,0 31,0 31,0z M27,4 C27,4 31,0 31,0 C31,0 31,31 31,31 C31,31 27,31 27,31 C27,31 27,4 27,4 C27,4 27,4 27,4z"></path></g></g><g clip-path="url(#__lottie_element_178)" transform="matrix(1,0,0,1,226,21)" opacity="1" style="display: block;"><g opacity="1" transform="matrix(1,0,0,1,0,0)"><path fill="rgb(0,255,0)" fill-opacity="0" d=" M48,-16 C48,-16 -16,-16 -16,-16 C-16,-16 -16,48 -16,48 C-16,48 48,48 48,48 C48,48 48,-16 48,-16z"></path></g><g opacity="1" transform="matrix(1,0,0,1,0,0)"><path stroke-linecap="butt" stroke-linejoin="miter" fill-opacity="0" stroke-miterlimit="4" stroke="rgb(225,48,34)" stroke-opacity="0.006038644811023488" stroke-width="3.975845420755906" d="M0 0"></path></g></g><g transform="matrix(1,0,0,1,21,21)" opacity="1" style="display: block;"><g opacity="1" transform="matrix(1,0,0,1,0,0)"><path fill="rgb(225,48,34)" fill-opacity="0.3" d=" M31,4 C31,4 31,0 31,0 C31,0 0,0 0,0 C0,0 0,31 0,31 C0,31 4,31 4,31 C4,31 4,4 4,4 C4,4 31,4 31,4 C31,4 31,4 31,4z"></path></g></g><g clip-path="url(#__lottie_element_171)" transform="matrix(1,0,0,1,21,21)" opacity="1" style="display: block;"><g opacity="1" transform="matrix(1,0,0,1,0,0)"><path fill="rgb(0,255,0)" fill-opacity="0" d=" M48,-16 C48,-16 -16,-16 -16,-16 C-16,-16 -16,48 -16,48 C-16,48 48,48 48,48 C48,48 48,-16 48,-16z"></path></g><g opacity="1" transform="matrix(1,0,0,1,0,0)"><path stroke-linecap="butt" stroke-linejoin="miter" fill-opacity="0" stroke-miterlimit="4" stroke="rgb(225,48,34)" stroke-opacity="0.9939613551889765" stroke-width="3.975845420755906" d="M0 0"></path></g></g><g transform="matrix(1,0,0,1,21,87)" opacity="1" style="display: block;"><g opacity="1" transform="matrix(1,0,0,1,0,0)"><path fill="rgb(225,48,34)" fill-opacity="0.3" d=" M4,2 C4,3.104599952697754 3.104599952697754,4 2,4 C0.8953999876976013,4 0,3.104599952697754 0,2 C0,0.8953999876976013 0.8953999876976013,0 2,0 C3.104599952697754,0 4,0.8953999876976013 4,2 C4,2 4,2 4,2 C4,2 4,2 4,2z"></path></g></g><g transform="matrix(1,0,0,1,21,120)" opacity="1" style="display: block;"><g opacity="1" transform="matrix(1,0,0,1,0,0)"><path fill="rgb(225,48,34)" fill-opacity="0.3" d=" M4,2 C4,3.104599952697754 3.104599952697754,4 2,4 C0.8953999876976013,4 0,3.104599952697754 0,2 C0,0.8953999876976013 0.8953999876976013,0 2,0 C3.104599952697754,0 4,0.8953999876976013 4,2 C4,2 4,2 4,2 C4,2 4,2 4,2z"></path></g></g><g transform="matrix(1,0,0,1,21,154)" opacity="1" style="display: block;"><g opacity="1" transform="matrix(1,0,0,1,0,0)"><path fill="rgb(225,48,34)" fill-opacity="0.3" d=" M4,2 C4,3.104599952697754 3.104599952697754,4 2,4 C0.8953999876976013,4 0,3.104599952697754 0,2 C0,0.8953999876976013 0.8953999876976013,0 2,0 C3.104599952697754,0 4,0.8953999876976013 4,2 C4,2 4,2 4,2 C4,2 4,2 4,2z"></path></g></g><g transform="matrix(1,0,0,1,21,187)" opacity="1" style="display: block;"><g opacity="1" transform="matrix(1,0,0,1,0,0)"><path fill="rgb(225,48,34)" fill-opacity="0.3" d=" M4,2 C4,3.104599952697754 3.104599952697754,4 2,4 C0.8953999876976013,4 0,3.104599952697754 0,2 C0,0.8953999876976013 0.8953999876976013,0 2,0 C3.104599952697754,0 4,0.8953999876976013 4,2 C4,2 4,2 4,2 C4,2 4,2 4,2z"></path></g></g><g transform="matrix(1,0,0,1,253,87)" opacity="1" style="display: block;"><g opacity="1" transform="matrix(1,0,0,1,0,0)"><path fill="rgb(225,48,34)" fill-opacity="0.3" d=" M4,2 C4,3.104599952697754 3.104599952697754,4 2,4 C0.8953999876976013,4 0,3.104599952697754 0,2 C0,0.8953999876976013 0.8953999876976013,0 2,0 C3.104599952697754,0 4,0.8953999876976013 4,2 C4,2 4,2 4,2 C4,2 4,2 4,2z"></path></g></g><g transform="matrix(1,0,0,1,253,120)" opacity="1" style="display: block;"><g opacity="1" transform="matrix(1,0,0,1,0,0)"><path fill="rgb(225,48,34)" fill-opacity="0.3" d=" M4,2 C4,3.104599952697754 3.104599952697754,4 2,4 C0.8953999876976013,4 0,3.104599952697754 0,2 C0,0.8953999876976013 0.8953999876976013,0 2,0 C3.104599952697754,0 4,0.8953999876976013 4,2 C4,2 4,2 4,2 C4,2 4,2 4,2z"></path></g></g><g transform="matrix(1,0,0,1,253,154)" opacity="1" style="display: block;"><g opacity="1" transform="matrix(1,0,0,1,0,0)"><path fill="rgb(225,48,34)" fill-opacity="0.3" d=" M4,2 C4,3.104599952697754 3.104599952697754,4 2,4 C0.8953999876976013,4 0,3.104599952697754 0,2 C0,0.8953999876976013 0.8953999876976013,0 2,0 C3.104599952697754,0 4,0.8953999876976013 4,2 C4,2 4,2 4,2 C4,2 4,2 4,2z"></path></g></g><g transform="matrix(1,0,0,1,253,187)" opacity="1" style="display: block;"><g opacity="1" transform="matrix(1,0,0,1,0,0)"><path fill="rgb(225,48,34)" fill-opacity="0.3" d=" M4,2 C4,3.104599952697754 3.104599952697754,4 2,4 C0.8953999876976013,4 0,3.104599952697754 0,2 C0,0.8953999876976013 0.8953999876976013,0 2,0 C3.104599952697754,0 4,0.8953999876976013 4,2 C4,2 4,2 4,2 C4,2 4,2 4,2z"></path></g></g><g transform="matrix(1,0,0,1,88,21)" opacity="1" style="display: block;"><g opacity="1" transform="matrix(1,0,0,1,0,0)"><path fill="rgb(225,48,34)" fill-opacity="0.3" d=" M4,2 C4,3.104599952697754 3.104599952697754,4 2,4 C0.8953999876976013,4 0,3.104599952697754 0,2 C0,0.8953999876976013 0.8953999876976013,0 2,0 C3.104599952697754,0 4,0.8953999876976013 4,2 C4,2 4,2 4,2 C4,2 4,2 4,2z"></path></g></g><g transform="matrix(1,0,0,1,121,21)" opacity="1" style="display: block;"><g opacity="1" transform="matrix(1,0,0,1,0,0)"><path fill="rgb(225,48,34)" fill-opacity="0.3" d=" M4,2 C4,3.104599952697754 3.104599952697754,4 2,4 C0.8953999876976013,4 0,3.104599952697754 0,2 C0,0.8953999876976013 0.8953999876976013,0 2,0 C3.104599952697754,0 4,0.8953999876976013 4,2 C4,2 4,2 4,2 C4,2 4,2 4,2z"></path></g></g><g transform="matrix(1,0,0,1,154,21)" opacity="1" style="display: block;"><g opacity="1" transform="matrix(1,0,0,1,0,0)"><path fill="rgb(225,48,34)" fill-opacity="0.3" d=" M4,2 C4,3.104599952697754 3.104599952697754,4 2,4 C0.8953999876976013,4 0,3.104599952697754 0,2 C0,0.8953999876976013 0.8953999876976013,0 2,0 C3.104599952697754,0 4,0.8953999876976013 4,2 C4,2 4,2 4,2 C4,2 4,2 4,2z"></path></g></g><g transform="matrix(1,0,0,1,187,21)" opacity="1" style="display: block;"><g opacity="1" transform="matrix(1,0,0,1,0,0)"><path fill="rgb(225,48,34)" fill-opacity="0.3" d=" M4,2 C4,3.104599952697754 3.104599952697754,4 2,4 C0.8953999876976013,4 0,3.104599952697754 0,2 C0,0.8953999876976013 0.8953999876976013,0 2,0 C3.104599952697754,0 4,0.8953999876976013 4,2 C4,2 4,2 4,2 C4,2 4,2 4,2z"></path></g></g><g transform="matrix(1,0,0,1,88,253)" opacity="1" style="display: block;"><g opacity="1" transform="matrix(1,0,0,1,0,0)"><path fill="rgb(225,48,34)" fill-opacity="0.3" d=" M4,2 C4,3.104599952697754 3.104599952697754,4 2,4 C0.8953999876976013,4 0,3.104599952697754 0,2 C0,0.8953999876976013 0.8953999876976013,0 2,0 C3.104599952697754,0 4,0.8953999876976013 4,2 C4,2 4,2 4,2 C4,2 4,2 4,2z"></path></g></g><g transform="matrix(1,0,0,1,121,253)" opacity="1" style="display: block;"><g opacity="1" transform="matrix(1,0,0,1,0,0)"><path fill="rgb(225,48,34)" fill-opacity="0.3" d=" M4,2 C4,3.104599952697754 3.104599952697754,4 2,4 C0.8953999876976013,4 0,3.104599952697754 0,2 C0,0.8953999876976013 0.8953999876976013,0 2,0 C3.104599952697754,0 4,0.8953999876976013 4,2 C4,2 4,2 4,2 C4,2 4,2 4,2z"></path></g></g><g transform="matrix(1,0,0,1,154,253)" opacity="1" style="display: block;"><g opacity="1" transform="matrix(1,0,0,1,0,0)"><path fill="rgb(225,48,34)" fill-opacity="0.3" d=" M4,2 C4,3.104599952697754 3.104599952697754,4 2,4 C0.8953999876976013,4 0,3.104599952697754 0,2 C0,0.8953999876976013 0.8953999876976013,0 2,0 C3.104599952697754,0 4,0.8953999876976013 4,2 C4,2 4,2 4,2 C4,2 4,2 4,2z"></path></g></g><g transform="matrix(1,0,0,1,187,253)" opacity="1" style="display: block;"><g opacity="1" transform="matrix(1,0,0,1,0,0)"><path fill="rgb(225,48,34)" fill-opacity="0.3" d=" M4,2 C4,3.104599952697754 3.104599952697754,4 2,4 C0.8953999876976013,4 0,3.104599952697754 0,2 C0,0.8953999876976013 0.8953999876976013,0 2,0 C3.104599952697754,0 4,0.8953999876976013 4,2 C4,2 4,2 4,2 C4,2 4,2 4,2z"></path></g></g></g><g clip-path="url(#__lottie_element_30)" transform="matrix(1,0,0,1,0,0)" opacity="1" style="display: block;"><g transform="matrix(0.8829988241195679,0,0,0.8829988241195679,21.2340030670166,87.23400115966797)" opacity="1" style="display: block;"><g opacity="1" transform="matrix(1,0,0,1,0,0)"><path fill="rgb(225,48,34)" fill-opacity="1" d=" M4,2 C4,3.104599952697754 3.104599952697754,4 2,4 C0.8953999876976013,4 0,3.104599952697754 0,2 C0,0.8953999876976013 0.8953999876976013,0 2,0 C3.104599952697754,0 4,0.8953999876976013 4,2 C4,2 4,2 4,2 C4,2 4,2 4,2z"></path></g></g><g transform="matrix(0.4125952422618866,0,0,0.4125952422618866,22.174808502197266,121.17481231689453)" opacity="1" style="display: block;"><g opacity="1" transform="matrix(1,0,0,1,0,0)"><path fill="rgb(225,48,34)" fill-opacity="1" d=" M4,2 C4,3.104599952697754 3.104599952697754,4 2,4 C0.8953999876976013,4 0,3.104599952697754 0,2 C0,0.8953999876976013 0.8953999876976013,0 2,0 C3.104599952697754,0 4,0.8953999876976013 4,2 C4,2 4,2 4,2 C4,2 4,2 4,2z"></path></g></g><g transform="matrix(-0.0009999979520216584,0,0,-0.0009999979520216584,23.00200080871582,156.0019989013672)" opacity="1" style="display: block;"><g opacity="1" transform="matrix(1,0,0,1,0,0)"><path fill="rgb(225,48,34)" fill-opacity="1" d=" M4,2 C4,3.104599952697754 3.104599952697754,4 2,4 C0.8953999876976013,4 0,3.104599952697754 0,2 C0,0.8953999876976013 0.8953999876976013,0 2,0 C3.104599952697754,0 4,0.8953999876976013 4,2 C4,2 4,2 4,2 C4,2 4,2 4,2z"></path></g></g><g transform="matrix(-0.0009999979520216584,0,0,-0.0009999979520216584,23.00200080871582,189.0019989013672)" opacity="1" style="display: block;"><g opacity="1" transform="matrix(1,0,0,1,0,0)"><path fill="rgb(225,48,34)" fill-opacity="1" d=" M4,2 C4,3.104599952697754 3.104599952697754,4 2,4 C0.8953999876976013,4 0,3.104599952697754 0,2 C0,0.8953999876976013 0.8953999876976013,0 2,0 C3.104599952697754,0 4,0.8953999876976013 4,2 C4,2 4,2 4,2 C4,2 4,2 4,2z"></path></g></g><g transform="matrix(-0.0009999979520216584,0,0,-0.0009999979520216584,255.0019989013672,89.00199890136719)" opacity="1" style="display: block;"><g opacity="1" transform="matrix(1,0,0,1,0,0)"><path fill="rgb(225,48,34)" fill-opacity="1" d=" M4,2 C4,3.104599952697754 3.104599952697754,4 2,4 C0.8953999876976013,4 0,3.104599952697754 0,2 C0,0.8953999876976013 0.8953999876976013,0 2,0 C3.104599952697754,0 4,0.8953999876976013 4,2 C4,2 4,2 4,2 C4,2 4,2 4,2z"></path></g></g><g transform="matrix(-0.0009999979520216584,0,0,-0.0009999979520216584,255.0019989013672,122.00199890136719)" opacity="1" style="display: block;"><g opacity="1" transform="matrix(1,0,0,1,0,0)"><path fill="rgb(225,48,34)" fill-opacity="1" d=" M4,2 C4,3.104599952697754 3.104599952697754,4 2,4 C0.8953999876976013,4 0,3.104599952697754 0,2 C0,0.8953999876976013 0.8953999876976013,0 2,0 C3.104599952697754,0 4,0.8953999876976013 4,2 C4,2 4,2 4,2 C4,2 4,2 4,2z"></path></g></g><g transform="matrix(0.4125952422618866,0,0,0.4125952422618866,254.1748046875,155.1748046875)" opacity="1" style="display: block;"><g opacity="1" transform="matrix(1,0,0,1,0,0)"><path fill="rgb(225,48,34)" fill-opacity="1" d=" M4,2 C4,3.104599952697754 3.104599952697754,4 2,4 C0.8953999876976013,4 0,3.104599952697754 0,2 C0,0.8953999876976013 0.8953999876976013,0 2,0 C3.104599952697754,0 4,0.8953999876976013 4,2 C4,2 4,2 4,2 C4,2 4,2 4,2z"></path></g></g><g transform="matrix(0.8829988241195679,0,0,0.8829988241195679,253.2340087890625,187.2340087890625)" opacity="1" style="display: block;"><g opacity="1" transform="matrix(1,0,0,1,0,0)"><path fill="rgb(225,48,34)" fill-opacity="1" d=" M4,2 C4,3.104599952697754 3.104599952697754,4 2,4 C0.8953999876976013,4 0,3.104599952697754 0,2 C0,0.8953999876976013 0.8953999876976013,0 2,0 C3.104599952697754,0 4,0.8953999876976013 4,2 C4,2 4,2 4,2 C4,2 4,2 4,2z"></path></g></g><g transform="matrix(0.8829988241195679,0,0,0.8829988241195679,88.23400115966797,21.2340030670166)" opacity="1" style="display: block;"><g opacity="1" transform="matrix(1,0,0,1,0,0)"><path fill="rgb(225,48,34)" fill-opacity="1" d=" M4,2 C4,3.104599952697754 3.104599952697754,4 2,4 C0.8953999876976013,4 0,3.104599952697754 0,2 C0,0.8953999876976013 0.8953999876976013,0 2,0 C3.104599952697754,0 4,0.8953999876976013 4,2 C4,2 4,2 4,2 C4,2 4,2 4,2z"></path></g></g><g transform="matrix(0.4125952422618866,0,0,0.4125952422618866,122.17481231689453,22.174808502197266)" opacity="1" style="display: block;"><g opacity="1" transform="matrix(1,0,0,1,0,0)"><path fill="rgb(225,48,34)" fill-opacity="1" d=" M4,2 C4,3.104599952697754 3.104599952697754,4 2,4 C0.8953999876976013,4 0,3.104599952697754 0,2 C0,0.8953999876976013 0.8953999876976013,0 2,0 C3.104599952697754,0 4,0.8953999876976013 4,2 C4,2 4,2 4,2 C4,2 4,2 4,2z"></path></g></g><g transform="matrix(-0.0009999979520216584,0,0,-0.0009999979520216584,156.0019989013672,23.00200080871582)" opacity="1" style="display: block;"><g opacity="1" transform="matrix(1,0,0,1,0,0)"><path fill="rgb(225,48,34)" fill-opacity="1" d=" M4,2 C4,3.104599952697754 3.104599952697754,4 2,4 C0.8953999876976013,4 0,3.104599952697754 0,2 C0,0.8953999876976013 0.8953999876976013,0 2,0 C3.104599952697754,0 4,0.8953999876976013 4,2 C4,2 4,2 4,2 C4,2 4,2 4,2z"></path></g></g><g transform="matrix(-0.0009999979520216584,0,0,-0.0009999979520216584,189.0019989013672,23.00200080871582)" opacity="1" style="display: block;"><g opacity="1" transform="matrix(1,0,0,1,0,0)"><path fill="rgb(225,48,34)" fill-opacity="1" d=" M4,2 C4,3.104599952697754 3.104599952697754,4 2,4 C0.8953999876976013,4 0,3.104599952697754 0,2 C0,0.8953999876976013 0.8953999876976013,0 2,0 C3.104599952697754,0 4,0.8953999876976013 4,2 C4,2 4,2 4,2 C4,2 4,2 4,2z"></path></g></g><g transform="matrix(-0.0009999979520216584,0,0,-0.0009999979520216584,90.00199890136719,255.0019989013672)" opacity="1" style="display: block;"><g opacity="1" transform="matrix(1,0,0,1,0,0)"><path fill="rgb(225,48,34)" fill-opacity="1" d=" M4,2 C4,3.104599952697754 3.104599952697754,4 2,4 C0.8953999876976013,4 0,3.104599952697754 0,2 C0,0.8953999876976013 0.8953999876976013,0 2,0 C3.104599952697754,0 4,0.8953999876976013 4,2 C4,2 4,2 4,2 C4,2 4,2 4,2z"></path></g></g><g transform="matrix(-0.0009999979520216584,0,0,-0.0009999979520216584,123.00199890136719,255.0019989013672)" opacity="1" style="display: block;"><g opacity="1" transform="matrix(1,0,0,1,0,0)"><path fill="rgb(225,48,34)" fill-opacity="1" d=" M4,2 C4,3.104599952697754 3.104599952697754,4 2,4 C0.8953999876976013,4 0,3.104599952697754 0,2 C0,0.8953999876976013 0.8953999876976013,0 2,0 C3.104599952697754,0 4,0.8953999876976013 4,2 C4,2 4,2 4,2 C4,2 4,2 4,2z"></path></g></g><g transform="matrix(0.4125952422618866,0,0,0.4125952422618866,155.1748046875,254.1748046875)" opacity="1" style="display: block;"><g opacity="1" transform="matrix(1,0,0,1,0,0)"><path fill="rgb(225,48,34)" fill-opacity="1" d=" M4,2 C4,3.104599952697754 3.104599952697754,4 2,4 C0.8953999876976013,4 0,3.104599952697754 0,2 C0,0.8953999876976013 0.8953999876976013,0 2,0 C3.104599952697754,0 4,0.8953999876976013 4,2 C4,2 4,2 4,2 C4,2 4,2 4,2z"></path></g></g><g transform="matrix(0.8829988241195679,0,0,0.8829988241195679,187.2340087890625,253.2340087890625)" opacity="1" style="display: block;"><g opacity="1" transform="matrix(1,0,0,1,0,0)"><path fill="rgb(225,48,34)" fill-opacity="1" d=" M4,2 C4,3.104599952697754 3.104599952697754,4 2,4 C0.8953999876976013,4 0,3.104599952697754 0,2 C0,0.8953999876976013 0.8953999876976013,0 2,0 C3.104599952697754,0 4,0.8953999876976013 4,2 C4,2 4,2 4,2 C4,2 4,2 4,2z"></path></g></g></g><g clip-path="url(#__lottie_element_16)" transform="matrix(1,0,0,1,0,0)" opacity="1" style="display: block;"><g transform="matrix(1.0000061988830566,0,0,1.0000061988830566,78.47089385986328,76.37370300292969)" opacity="1" style="display: block;"><g opacity="1" transform="matrix(1,0,0,1,0,0)"><path fill="rgb(255,11,11)" fill-opacity="1" d=" M130.50830078125,74.68219757080078 C130.50830078125,80.94180297851562 130.50830078125,87.20210266113281 130.50830078125,93.46170043945312 C129.58128356933594,94.28912353515625 128.42950439453125,94.23680114746094 127.30989837646484,94.23739624023438 C98.46150207519531,94.25244140625 69.61239624023438,94.25900268554688 40.763999938964844,94.23280334472656 C36.89278030395508,94.22953033447266 36.17539978027344,93.48380279541016 36.16889953613281,89.50700378417969 C36.140071868896484,73.22026062011719 36.141300201416016,56.93410110473633 36.1682014465332,40.64739990234375 C36.17475128173828,36.57963943481445 36.8848991394043,35.87189865112305 40.95920181274414,35.8672981262207 C62.89719009399414,35.84244155883789 84.83450317382812,35.85879898071289 106.77249908447266,35.855499267578125 C111.38861083984375,35.85485076904297 111.3926010131836,35.851600646972656 111.39189910888672,31.214799880981445 C111.39124298095703,28.166109085083008 111.36699676513672,25.11669921875 111.39649963378906,22.068700790405273 C111.41287994384766,20.351070404052734 110.70659637451172,19.542600631713867 108.96330261230469,19.616500854492188 C108.08213806152344,19.653779983520508 107.19580078125,19.611299514770508 106.31199645996094,19.611299514770508 C72.56185150146484,19.61064910888672 38.81100082397461,19.612600326538086 5.0609002113342285,19.60930061340332 C0.054329998791217804,19.60865020751953 -0.0027000000700354576,19.600799560546875 0.07069999724626541,14.681400299072266 C0.1434199959039688,9.803230285644531 -0.24899999797344208,4.917200088500977 0.2881999909877777,0.04619999974966049 C43.051761627197266,0.04619999974966049 85.81529998779297,0.05869999900460243 128.5789031982422,-0.00019999999494757503 C130.2305145263672,-0.00215999991632998 130.5626983642578,0.3222000002861023 130.5561065673828,1.972499966621399 C130.4794464111328,19.788490295410156 130.50830078125,37.605098724365234 130.50830078125,55.42110061645508 C129.2661590576172,56.45389938354492 127.7666015625,56.1870002746582 126.3469009399414,56.18830108642578 C104.74629974365234,56.2053108215332 83.14640045166016,56.198699951171875 61.545799255371094,56.20069885253906 C56.53398132324219,56.201351165771484 56.53139877319336,56.2046012878418 56.53269958496094,61.203800201416016 C56.53335952758789,64.4905776977539 56.489498138427734,67.77799987792969 56.55039978027344,71.06410217285156 C56.59560012817383,73.501220703125 56.90879821777344,73.78569793701172 59.37799835205078,73.8832015991211 C60.90251159667969,73.9433822631836 62.42900085449219,73.90280151367188 63.95479965209961,73.90280151367188 C84.752197265625,73.90411376953125 105.54959869384766,73.89749908447266 126.34700012207031,73.91519927978516 C127.76669311523438,73.91584777832031 129.26620483398438,73.64830017089844 130.50840759277344,74.68180084228516 C130.50840759277344,74.68180084228516 130.50830078125,74.68219757080078 130.50830078125,74.68219757080078 C130.50830078125,74.68219757080078 130.50830078125,74.68219757080078 130.50830078125,74.68219757080078z"></path></g></g><g transform="matrix(1,0,0,1,78.47129821777344,113.47279357910156)" opacity="1" style="display: block;"><g opacity="1" transform="matrix(1,0,0,1,0,0)"><path fill="rgb(255,11,11)" fill-opacity="1" d=" M130.55560302734375,92.20369720458984 C87.93112182617188,92.20369720458984 45.30730056762695,92.1906967163086 2.683500051498413,92.24520111083984 C0.7067400217056274,92.247802734375 -0.0071000000461936,91.98300170898438 0.00009999999747378752,89.74109649658203 C0.09663999825716019,60.602378845214844 0.0835999995470047,31.463600158691406 0.019200000911951065,2.324899911880493 C0.015259999781847,0.4586699903011322 0.4788999855518341,-0.05530000105500221 2.3696000576019287,0.004399999976158142 C6.957520008087158,0.14910000562667847 11.555999755859375,0.13940000534057617 16.145200729370117,0.012199999764561653 C18.240829467773438,-0.04554999992251396 18.883800506591797,0.5891000032424927 18.877199172973633,2.712899923324585 C18.802330017089844,25.96027946472168 18.844999313354492,49.207698822021484 18.79640007019043,72.4551010131836 C18.793119430541992,74.00531005859375 19.000600814819336,74.62049865722656 20.81450080871582,74.6178970336914 C57.15407180786133,74.55819702148438 93.49359893798828,74.57250213623047 129.8332061767578,74.57050323486328 C130.07421875,74.57050323486328 130.3153076171875,74.54389953613281 130.55630493164062,74.52960205078125 C130.55563354492188,80.4202880859375 130.55560302734375,86.31230163574219 130.55560302734375,92.20359802246094 C130.55560302734375,92.20359802246094 130.55560302734375,92.20369720458984 130.55560302734375,92.20369720458984 C130.55560302734375,92.20369720458984 130.55560302734375,92.20369720458984 130.55560302734375,92.20369720458984z"></path></g></g></g></g></g></g></svg>